<svg width="1384" height="929" viewBox="0 0 1384 929" fill="none" xmlns="http://www.w3.org/2000/svg">
<g filter="url(#filter0_d_1283_984)">
<path d="M274.927 814.21C307.471 814.21 333.853 786.628 333.853 752.605C333.853 718.581 307.471 691 274.927 691C242.382 691 216 718.581 216 752.605C216 786.628 242.382 814.21 274.927 814.21Z" fill="#FBF8F8"/>
<path d="M192.417 691.017C237.782 691.017 274.557 652.243 274.557 604.413C274.557 556.583 237.782 517.809 192.417 517.809C147.053 517.809 110.277 556.583 110.277 604.413C110.277 652.243 147.053 691.017 192.417 691.017Z" fill="#FBF8F8"/>
<path d="M392.927 920.21C425.471 920.21 451.853 892.628 451.853 858.605C451.853 824.581 425.471 797 392.927 797C360.382 797 334 824.581 334 858.605C334 892.628 360.382 920.21 392.927 920.21Z" fill="#FBF8F8"/>
<path d="M1198.44 60.7129H164.925C76.5592 60.7129 4.9248 132.347 4.9248 220.713V472.121C4.9248 560.486 76.5592 632.121 164.925 632.121H1198.44C1286.81 632.121 1358.44 560.486 1358.44 472.121V220.713C1358.44 132.347 1286.81 60.7129 1198.44 60.7129Z" fill="#FBF8F8"/>
<path d="M315.636 691.019C348.181 691.019 374.563 663.437 374.563 629.414C374.563 595.39 348.181 567.809 315.636 567.809C283.092 567.809 256.71 595.39 256.71 629.414C256.71 663.437 283.092 691.019 315.636 691.019Z" fill="#FBF8F8"/>
<path d="M456.697 662.478C502.061 662.478 538.837 623.704 538.837 575.874C538.837 528.044 502.061 489.27 456.697 489.27C411.332 489.27 374.557 528.044 374.557 575.874C374.557 623.704 411.332 662.478 456.697 662.478Z" fill="#FBF8F8"/>
<path d="M1249.53 274.99C1321.52 274.99 1379.88 213.431 1379.88 137.495C1379.88 61.5586 1321.52 0 1249.53 0C1177.53 0 1119.17 61.5586 1119.17 137.495C1119.17 213.431 1177.53 274.99 1249.53 274.99Z" fill="#FBF8F8"/>
<path d="M1087.03 173.208C1132.39 173.208 1169.17 134.434 1169.17 86.6041C1169.17 38.774 1132.39 0 1087.03 0C1041.66 0 1004.89 38.774 1004.89 86.6041C1004.89 134.434 1041.66 173.208 1087.03 173.208Z" fill="#FBF8F8"/>
<path d="M189.377 307.8C187.577 307.8 186.107 307.367 184.977 306.5C183.907 305.633 183.047 304.267 182.377 302.4L161.477 243.3C160.747 241.167 160.877 239.367 161.877 237.9C162.947 236.433 164.707 235.7 167.177 235.7C168.977 235.7 170.377 236.133 171.377 237C172.377 237.8 173.177 239.1 173.777 240.9L191.777 294.3H187.777L206.577 241C207.247 239.2 208.077 237.867 209.077 237C210.077 236.133 211.377 235.7 212.977 235.7C214.577 235.7 215.847 236.133 216.777 237C217.707 237.867 218.507 239.233 219.177 241.1L237.377 294.3H233.877L252.177 240.9C252.777 239.167 253.577 237.867 254.577 237C255.577 236.133 256.947 235.7 258.677 235.7C260.807 235.7 262.377 236.433 263.377 237.9C264.377 239.367 264.507 241.167 263.777 243.3L242.677 302.5C242.007 304.3 241.147 305.633 240.077 306.5C239.007 307.367 237.577 307.8 235.777 307.8C233.977 307.8 232.547 307.367 231.477 306.5C230.407 305.633 229.547 304.267 228.877 302.4L211.477 252.8H213.777L196.177 302.5C195.507 304.3 194.647 305.633 193.577 306.5C192.577 307.367 191.177 307.8 189.377 307.8ZM290.757 308C285.687 308 281.287 306.967 277.557 304.9C273.817 302.833 270.917 299.9 268.857 296.1C266.787 292.233 265.757 287.7 265.757 282.5C265.757 278.567 266.317 275.067 267.457 272C268.657 268.867 270.357 266.2 272.557 264C274.757 261.733 277.387 260.033 280.457 258.9C283.517 257.7 286.957 257.1 290.757 257.1C295.817 257.1 300.217 258.133 303.957 260.2C307.687 262.267 310.587 265.2 312.657 269C314.717 272.8 315.757 277.3 315.757 282.5C315.757 286.433 315.157 289.967 313.957 293.1C312.817 296.233 311.157 298.933 308.957 301.2C306.757 303.4 304.117 305.1 301.057 306.3C297.987 307.433 294.557 308 290.757 308ZM290.757 298.5C293.217 298.5 295.387 297.9 297.257 296.7C299.117 295.5 300.557 293.733 301.557 291.4C302.617 289 303.157 286.033 303.157 282.5C303.157 277.167 302.017 273.2 299.757 270.6C297.487 267.933 294.487 266.6 290.757 266.6C288.287 266.6 286.117 267.2 284.257 268.4C282.387 269.533 280.917 271.3 279.857 273.7C278.857 276.033 278.357 278.967 278.357 282.5C278.357 287.767 279.487 291.767 281.757 294.5C284.017 297.167 287.017 298.5 290.757 298.5ZM343.997 307.8C342.327 307.8 340.897 307.4 339.697 306.6C338.497 305.733 337.527 304.4 336.797 302.6L322.297 265.6C321.697 264 321.497 262.6 321.697 261.4C321.967 260.133 322.597 259.133 323.597 258.4C324.597 257.667 325.927 257.3 327.597 257.3C329.067 257.3 330.267 257.667 331.197 258.4C332.127 259.067 332.927 260.367 333.597 262.3L345.697 295.6H343.397L355.897 261.5C356.427 260.033 357.127 258.967 357.997 258.3C358.927 257.633 360.127 257.3 361.597 257.3C363.067 257.3 364.267 257.667 365.197 258.4C366.127 259.067 366.827 260.1 367.297 261.5L379.597 295.6H377.497L389.697 262C390.367 260.2 391.197 258.967 392.197 258.3C393.267 257.633 394.427 257.3 395.697 257.3C397.297 257.3 398.527 257.7 399.397 258.5C400.267 259.3 400.767 260.333 400.897 261.6C401.027 262.8 400.797 264.133 400.197 265.6L385.797 302.6C385.127 304.333 384.167 305.633 382.897 306.5C381.697 307.367 380.267 307.8 378.597 307.8C376.927 307.8 375.467 307.367 374.197 306.5C372.997 305.633 372.067 304.333 371.397 302.6L358.297 267.9H363.997L351.197 302.5C350.527 304.3 349.597 305.633 348.397 306.5C347.197 307.367 345.727 307.8 343.997 307.8ZM413.167 317.7C412.297 318.767 411.367 319.367 410.367 319.5C409.427 319.7 408.597 319.533 407.867 319C407.127 318.467 406.727 317.7 406.667 316.7C406.597 315.767 407.027 314.733 407.967 313.6C409.297 311.933 410.197 310.267 410.667 308.6C411.127 306.933 411.367 305.433 411.367 304.1L411.867 307.5C409.527 307.5 407.627 306.833 406.167 305.5C404.767 304.1 404.067 302.267 404.067 300C404.067 297.867 404.727 296.133 406.067 294.8C407.397 293.4 409.197 292.7 411.467 292.7C413.797 292.7 415.627 293.5 416.967 295.1C418.297 296.633 418.967 298.867 418.967 301.8C418.967 303.4 418.797 305.067 418.467 306.8C418.197 308.467 417.627 310.2 416.767 312C415.967 313.867 414.767 315.767 413.167 317.7ZM479.917 308C475.587 308 471.947 307.267 469.017 305.8C466.147 304.333 464.017 302.2 462.617 299.4C461.217 296.533 460.517 293 460.517 288.8V267.5H455.317C453.717 267.5 452.487 267.1 451.617 266.3C450.747 265.433 450.317 264.267 450.317 262.8C450.317 261.267 450.747 260.1 451.617 259.3C452.487 258.5 453.717 258.1 455.317 258.1H460.517V249C460.517 246.933 461.047 245.367 462.117 244.3C463.247 243.233 464.817 242.7 466.817 242.7C468.817 242.7 470.347 243.233 471.417 244.3C472.487 245.367 473.017 246.933 473.017 249V258.1H483.617C485.217 258.1 486.447 258.5 487.317 259.3C488.187 260.1 488.617 261.267 488.617 262.8C488.617 264.267 488.187 265.433 487.317 266.3C486.447 267.1 485.217 267.5 483.617 267.5H473.017V288.1C473.017 291.3 473.717 293.7 475.117 295.3C476.517 296.9 478.787 297.7 481.917 297.7C483.047 297.7 484.047 297.6 484.917 297.4C485.787 297.2 486.547 297.067 487.217 297C488.017 296.933 488.687 297.2 489.217 297.8C489.747 298.333 490.017 299.467 490.017 301.2C490.017 302.533 489.787 303.733 489.317 304.8C488.917 305.8 488.147 306.5 487.017 306.9C486.147 307.167 485.017 307.4 483.617 307.6C482.217 307.867 480.987 308 479.917 308ZM503.367 307.8C501.367 307.8 499.837 307.267 498.767 306.2C497.697 305.067 497.167 303.467 497.167 301.4V242C497.167 239.933 497.697 238.367 498.767 237.3C499.837 236.233 501.367 235.7 503.367 235.7C505.367 235.7 506.897 236.233 507.967 237.3C509.097 238.367 509.667 239.933 509.667 242V267.9H508.267C509.737 264.367 511.997 261.7 515.067 259.9C518.197 258.033 521.737 257.1 525.667 257.1C529.597 257.1 532.837 257.833 535.367 259.3C537.897 260.767 539.797 263 541.067 266C542.337 268.933 542.967 272.667 542.967 277.2V301.4C542.967 303.467 542.437 305.067 541.367 306.2C540.297 307.267 538.767 307.8 536.767 307.8C534.767 307.8 533.197 307.267 532.067 306.2C530.997 305.067 530.467 303.467 530.467 301.4V277.8C530.467 274 529.737 271.233 528.267 269.5C526.867 267.767 524.667 266.9 521.667 266.9C517.997 266.9 515.067 268.067 512.867 270.4C510.737 272.667 509.667 275.7 509.667 279.5V301.4C509.667 305.667 507.567 307.8 503.367 307.8ZM561.867 307.7C559.867 307.7 558.327 307.1 557.267 305.9C556.197 304.7 555.667 303.033 555.667 300.9V264.2C555.667 262 556.197 260.333 557.267 259.2C558.327 258 559.867 257.4 561.867 257.4C563.867 257.4 565.397 258 566.467 259.2C567.597 260.333 568.167 262 568.167 264.2V300.9C568.167 303.033 567.627 304.7 566.567 305.9C565.497 307.1 563.927 307.7 561.867 307.7ZM561.867 248.1C559.527 248.1 557.697 247.533 556.367 246.4C555.097 245.2 554.467 243.567 554.467 241.5C554.467 239.367 555.097 237.733 556.367 236.6C557.697 235.467 559.527 234.9 561.867 234.9C564.267 234.9 566.097 235.467 567.367 236.6C568.627 237.733 569.267 239.367 569.267 241.5C569.267 243.567 568.627 245.2 567.367 246.4C566.097 247.533 564.267 248.1 561.867 248.1ZM599.047 308C596.187 308 593.147 307.7 589.947 307.1C586.747 306.5 583.887 305.467 581.347 304C580.287 303.333 579.517 302.567 579.047 301.7C578.647 300.767 578.487 299.867 578.547 299C578.687 298.067 579.017 297.267 579.547 296.6C580.147 295.933 580.887 295.5 581.747 295.3C582.687 295.1 583.687 295.267 584.747 295.8C587.417 297.067 589.917 297.967 592.247 298.5C594.587 298.967 596.887 299.2 599.147 299.2C602.347 299.2 604.717 298.667 606.247 297.6C607.847 296.467 608.647 295 608.647 293.2C608.647 291.667 608.117 290.5 607.047 289.7C606.047 288.833 604.517 288.2 602.447 287.8L592.447 285.9C588.317 285.1 585.147 283.6 582.947 281.4C580.817 279.133 579.747 276.233 579.747 272.7C579.747 269.5 580.617 266.733 582.347 264.4C584.147 262.067 586.617 260.267 589.747 259C592.887 257.733 596.487 257.1 600.547 257.1C603.487 257.1 606.217 257.433 608.747 258.1C611.347 258.7 613.847 259.667 616.247 261C617.247 261.533 617.917 262.233 618.247 263.1C618.647 263.967 618.747 264.867 618.547 265.8C618.347 266.667 617.947 267.467 617.347 268.2C616.747 268.867 615.987 269.3 615.047 269.5C614.187 269.633 613.187 269.433 612.047 268.9C609.987 267.833 607.987 267.067 606.047 266.6C604.187 266.133 602.387 265.9 600.647 265.9C597.387 265.9 594.947 266.467 593.347 267.6C591.817 268.733 591.047 270.233 591.047 272.1C591.047 273.5 591.517 274.667 592.447 275.6C593.387 276.533 594.817 277.167 596.747 277.5L606.747 279.4C611.087 280.2 614.347 281.667 616.547 283.8C618.817 285.933 619.947 288.8 619.947 292.4C619.947 297.267 618.047 301.1 614.247 303.9C610.447 306.633 605.387 308 599.047 308ZM676.027 307.8C674.357 307.8 672.927 307.4 671.727 306.6C670.527 305.733 669.557 304.4 668.827 302.6L654.327 265.6C653.727 264 653.527 262.6 653.727 261.4C653.997 260.133 654.627 259.133 655.627 258.4C656.627 257.667 657.957 257.3 659.627 257.3C661.097 257.3 662.297 257.667 663.227 258.4C664.157 259.067 664.957 260.367 665.627 262.3L677.727 295.6H675.427L687.927 261.5C688.457 260.033 689.157 258.967 690.027 258.3C690.957 257.633 692.157 257.3 693.627 257.3C695.097 257.3 696.297 257.667 697.227 258.4C698.157 259.067 698.857 260.1 699.327 261.5L711.627 295.6H709.527L721.727 262C722.397 260.2 723.227 258.967 724.227 258.3C725.297 257.633 726.457 257.3 727.727 257.3C729.327 257.3 730.557 257.7 731.427 258.5C732.297 259.3 732.797 260.333 732.927 261.6C733.057 262.8 732.827 264.133 732.227 265.6L717.827 302.6C717.157 304.333 716.197 305.633 714.927 306.5C713.727 307.367 712.297 307.8 710.627 307.8C708.957 307.8 707.497 307.367 706.227 306.5C705.027 305.633 704.097 304.333 703.427 302.6L690.327 267.9H696.027L683.227 302.5C682.557 304.3 681.627 305.633 680.427 306.5C679.227 307.367 677.757 307.8 676.027 307.8ZM765.507 308C759.967 308 755.207 306.967 751.207 304.9C747.207 302.833 744.107 299.9 741.907 296.1C739.767 292.3 738.707 287.8 738.707 282.6C738.707 277.533 739.737 273.1 741.807 269.3C743.937 265.5 746.837 262.533 750.507 260.4C754.237 258.2 758.467 257.1 763.207 257.1C766.667 257.1 769.767 257.667 772.507 258.8C775.307 259.933 777.667 261.567 779.607 263.7C781.607 265.833 783.107 268.433 784.107 271.5C785.167 274.5 785.707 277.9 785.707 281.7C785.707 282.9 785.267 283.833 784.407 284.5C783.607 285.1 782.437 285.4 780.907 285.4H748.807V278.2H776.907L775.307 279.7C775.307 276.633 774.837 274.067 773.907 272C773.037 269.933 771.737 268.367 770.007 267.3C768.337 266.167 766.237 265.6 763.707 265.6C760.907 265.6 758.507 266.267 756.507 267.6C754.567 268.867 753.067 270.7 752.007 273.1C751.007 275.433 750.507 278.233 750.507 281.5V282.2C750.507 287.667 751.767 291.767 754.307 294.5C756.907 297.167 760.707 298.5 765.707 298.5C767.437 298.5 769.367 298.3 771.507 297.9C773.707 297.433 775.767 296.667 777.707 295.6C779.107 294.8 780.337 294.467 781.407 294.6C782.467 294.667 783.307 295.033 783.907 295.7C784.567 296.367 784.967 297.2 785.107 298.2C785.237 299.133 785.037 300.1 784.507 301.1C784.037 302.1 783.207 302.967 782.007 303.7C779.667 305.167 776.967 306.267 773.907 307C770.907 307.667 768.107 308 765.507 308ZM823.807 308C819.667 308 816.037 306.967 812.907 304.9C809.837 302.833 807.807 300.067 806.807 296.6L807.907 294.1V301.4C807.907 303.467 807.367 305.067 806.307 306.2C805.237 307.267 803.737 307.8 801.807 307.8C799.807 307.8 798.267 307.267 797.207 306.2C796.137 305.067 795.607 303.467 795.607 301.4V242C795.607 239.933 796.137 238.367 797.207 237.3C798.267 236.233 799.807 235.7 801.807 235.7C803.807 235.7 805.337 236.233 806.407 237.3C807.537 238.367 808.107 239.933 808.107 242V268H806.907C807.967 264.733 810.037 262.1 813.107 260.1C816.167 258.1 819.737 257.1 823.807 257.1C828.137 257.1 831.907 258.133 835.107 260.2C838.307 262.267 840.807 265.2 842.607 269C844.407 272.733 845.307 277.233 845.307 282.5C845.307 287.7 844.407 292.233 842.607 296.1C840.807 299.9 838.267 302.833 835.007 304.9C831.807 306.967 828.067 308 823.807 308ZM820.307 298.5C822.767 298.5 824.937 297.9 826.807 296.7C828.667 295.5 830.107 293.733 831.107 291.4C832.167 289 832.707 286.033 832.707 282.5C832.707 277.167 831.567 273.2 829.307 270.6C827.037 267.933 824.037 266.6 820.307 266.6C817.837 266.6 815.667 267.2 813.807 268.4C811.937 269.533 810.467 271.3 809.407 273.7C808.407 276.033 807.907 278.967 807.907 282.5C807.907 287.767 809.037 291.767 811.307 294.5C813.567 297.167 816.567 298.5 820.307 298.5ZM873.467 308C870.597 308 867.567 307.7 864.367 307.1C861.167 306.5 858.297 305.467 855.767 304C854.697 303.333 853.927 302.567 853.467 301.7C853.067 300.767 852.897 299.867 852.967 299C853.097 298.067 853.427 297.267 853.967 296.6C854.567 295.933 855.297 295.5 856.167 295.3C857.097 295.1 858.097 295.267 859.167 295.8C861.827 297.067 864.327 297.967 866.667 298.5C868.997 298.967 871.297 299.2 873.567 299.2C876.767 299.2 879.127 298.667 880.667 297.6C882.267 296.467 883.067 295 883.067 293.2C883.067 291.667 882.527 290.5 881.467 289.7C880.467 288.833 878.927 288.2 876.867 287.8L866.867 285.9C862.727 285.1 859.567 283.6 857.367 281.4C855.227 279.133 854.167 276.233 854.167 272.7C854.167 269.5 855.027 266.733 856.767 264.4C858.567 262.067 861.027 260.267 864.167 259C867.297 257.733 870.897 257.1 874.967 257.1C877.897 257.1 880.627 257.433 883.167 258.1C885.767 258.7 888.267 259.667 890.667 261C891.667 261.533 892.327 262.233 892.667 263.1C893.067 263.967 893.167 264.867 892.967 265.8C892.767 266.667 892.367 267.467 891.767 268.2C891.167 268.867 890.397 269.3 889.467 269.5C888.597 269.633 887.597 269.433 886.467 268.9C884.397 267.833 882.397 267.067 880.467 266.6C878.597 266.133 876.797 265.9 875.067 265.9C871.797 265.9 869.367 266.467 867.767 267.6C866.227 268.733 865.467 270.233 865.467 272.1C865.467 273.5 865.927 274.667 866.867 275.6C867.797 276.533 869.227 277.167 871.167 277.5L881.167 279.4C885.497 280.2 888.767 281.667 890.967 283.8C893.227 285.933 894.367 288.8 894.367 292.4C894.367 297.267 892.467 301.1 888.667 303.9C884.867 306.633 879.797 308 873.467 308ZM910.597 307.7C908.597 307.7 907.057 307.1 905.997 305.9C904.927 304.7 904.397 303.033 904.397 300.9V264.2C904.397 262 904.927 260.333 905.997 259.2C907.057 258 908.597 257.4 910.597 257.4C912.597 257.4 914.127 258 915.197 259.2C916.327 260.333 916.897 262 916.897 264.2V300.9C916.897 303.033 916.357 304.7 915.297 305.9C914.227 307.1 912.657 307.7 910.597 307.7ZM910.597 248.1C908.257 248.1 906.427 247.533 905.097 246.4C903.827 245.2 903.197 243.567 903.197 241.5C903.197 239.367 903.827 237.733 905.097 236.6C906.427 235.467 908.257 234.9 910.597 234.9C912.997 234.9 914.827 235.467 916.097 236.6C917.357 237.733 917.997 239.367 917.997 241.5C917.997 243.567 917.357 245.2 916.097 246.4C914.827 247.533 912.997 248.1 910.597 248.1ZM952.277 308C947.947 308 944.317 307.267 941.377 305.8C938.517 304.333 936.377 302.2 934.977 299.4C933.577 296.533 932.877 293 932.877 288.8V267.5H927.677C926.077 267.5 924.847 267.1 923.977 266.3C923.117 265.433 922.677 264.267 922.677 262.8C922.677 261.267 923.117 260.1 923.977 259.3C924.847 258.5 926.077 258.1 927.677 258.1H932.877V249C932.877 246.933 933.417 245.367 934.477 244.3C935.617 243.233 937.177 242.7 939.177 242.7C941.177 242.7 942.717 243.233 943.777 244.3C944.847 245.367 945.377 246.933 945.377 249V258.1H955.977C957.577 258.1 958.817 258.5 959.677 259.3C960.547 260.1 960.977 261.267 960.977 262.8C960.977 264.267 960.547 265.433 959.677 266.3C958.817 267.1 957.577 267.5 955.977 267.5H945.377V288.1C945.377 291.3 946.077 293.7 947.477 295.3C948.877 296.9 951.147 297.7 954.277 297.7C955.417 297.7 956.417 297.6 957.277 297.4C958.147 297.2 958.917 297.067 959.577 297C960.377 296.933 961.047 297.2 961.577 297.8C962.117 298.333 962.377 299.467 962.377 301.2C962.377 302.533 962.147 303.733 961.677 304.8C961.277 305.8 960.517 306.5 959.377 306.9C958.517 307.167 957.377 307.4 955.977 307.6C954.577 307.867 953.347 308 952.277 308ZM991.867 308C986.337 308 981.567 306.967 977.567 304.9C973.567 302.833 970.467 299.9 968.267 296.1C966.137 292.3 965.067 287.8 965.067 282.6C965.067 277.533 966.107 273.1 968.167 269.3C970.307 265.5 973.207 262.533 976.867 260.4C980.607 258.2 984.837 257.1 989.567 257.1C993.037 257.1 996.137 257.667 998.867 258.8C1001.67 259.933 1004.04 261.567 1005.97 263.7C1007.97 265.833 1009.47 268.433 1010.47 271.5C1011.54 274.5 1012.07 277.9 1012.07 281.7C1012.07 282.9 1011.64 283.833 1010.77 284.5C1009.97 285.1 1008.81 285.4 1007.27 285.4H975.167V278.2H1003.27L1001.67 279.7C1001.67 276.633 1001.21 274.067 1000.27 272C999.407 269.933 998.107 268.367 996.367 267.3C994.707 266.167 992.607 265.6 990.067 265.6C987.267 265.6 984.867 266.267 982.867 267.6C980.937 268.867 979.437 270.7 978.367 273.1C977.367 275.433 976.867 278.233 976.867 281.5V282.2C976.867 287.667 978.137 291.767 980.667 294.5C983.267 297.167 987.067 298.5 992.067 298.5C993.807 298.5 995.737 298.3 997.867 297.9C1000.07 297.433 1002.14 296.667 1004.07 295.6C1005.47 294.8 1006.71 294.467 1007.77 294.6C1008.84 294.667 1009.67 295.033 1010.27 295.7C1010.94 296.367 1011.34 297.2 1011.47 298.2C1011.61 299.133 1011.41 300.1 1010.87 301.1C1010.41 302.1 1009.57 302.967 1008.37 303.7C1006.04 305.167 1003.34 306.267 1000.27 307C997.267 307.667 994.467 308 991.867 308ZM1068.02 307.8C1066.36 307.8 1064.92 307.4 1063.72 306.6C1062.52 305.733 1061.56 304.4 1060.82 302.6L1046.32 265.6C1045.72 264 1045.52 262.6 1045.72 261.4C1045.99 260.133 1046.62 259.133 1047.62 258.4C1048.62 257.667 1049.96 257.3 1051.62 257.3C1053.09 257.3 1054.29 257.667 1055.22 258.4C1056.16 259.067 1056.96 260.367 1057.62 262.3L1069.72 295.6H1067.42L1079.92 261.5C1080.46 260.033 1081.16 258.967 1082.02 258.3C1082.96 257.633 1084.16 257.3 1085.62 257.3C1087.09 257.3 1088.29 257.667 1089.22 258.4C1090.16 259.067 1090.86 260.1 1091.32 261.5L1103.62 295.6H1101.52L1113.72 262C1114.39 260.2 1115.22 258.967 1116.22 258.3C1117.29 257.633 1118.46 257.3 1119.72 257.3C1121.32 257.3 1122.56 257.7 1123.42 258.5C1124.29 259.3 1124.79 260.333 1124.92 261.6C1125.06 262.8 1124.82 264.133 1124.22 265.6L1109.82 302.6C1109.16 304.333 1108.19 305.633 1106.92 306.5C1105.72 307.367 1104.29 307.8 1102.62 307.8C1100.96 307.8 1099.49 307.367 1098.22 306.5C1097.02 305.633 1096.09 304.333 1095.42 302.6L1082.32 267.9H1088.02L1075.22 302.5C1074.56 304.3 1073.62 305.633 1072.42 306.5C1071.22 307.367 1069.76 307.8 1068.02 307.8ZM1149.5 308C1145.97 308 1142.8 307.333 1140 306C1137.27 304.6 1135.1 302.733 1133.5 300.4C1131.97 298.067 1131.2 295.433 1131.2 292.5C1131.2 288.9 1132.13 286.067 1134 284C1135.87 281.867 1138.9 280.333 1143.1 279.4C1147.3 278.467 1152.93 278 1160 278H1165V285.2H1160.1C1155.97 285.2 1152.67 285.4 1150.2 285.8C1147.73 286.2 1145.97 286.9 1144.9 287.9C1143.9 288.833 1143.4 290.167 1143.4 291.9C1143.4 294.1 1144.17 295.9 1145.7 297.3C1147.23 298.7 1149.37 299.4 1152.1 299.4C1154.3 299.4 1156.23 298.9 1157.9 297.9C1159.63 296.833 1161 295.4 1162 293.6C1163 291.8 1163.5 289.733 1163.5 287.4V275.9C1163.5 272.567 1162.77 270.167 1161.3 268.7C1159.83 267.233 1157.37 266.5 1153.9 266.5C1151.97 266.5 1149.87 266.733 1147.6 267.2C1145.4 267.667 1143.07 268.467 1140.6 269.6C1139.33 270.2 1138.2 270.367 1137.2 270.1C1136.27 269.833 1135.53 269.3 1135 268.5C1134.47 267.633 1134.2 266.7 1134.2 265.7C1134.2 264.7 1134.47 263.733 1135 262.8C1135.53 261.8 1136.43 261.067 1137.7 260.6C1140.77 259.333 1143.7 258.433 1146.5 257.9C1149.37 257.367 1151.97 257.1 1154.3 257.1C1159.1 257.1 1163.03 257.833 1166.1 259.3C1169.23 260.767 1171.57 263 1173.1 266C1174.63 268.933 1175.4 272.733 1175.4 277.4V301.4C1175.4 303.467 1174.9 305.067 1173.9 306.2C1172.9 307.267 1171.47 307.8 1169.6 307.8C1167.73 307.8 1166.27 307.267 1165.2 306.2C1164.2 305.067 1163.7 303.467 1163.7 301.4V296.6H1164.5C1164.03 298.933 1163.1 300.967 1161.7 302.7C1160.37 304.367 1158.67 305.667 1156.6 306.6C1154.53 307.533 1152.17 308 1149.5 308ZM1205.99 308C1203.12 308 1200.09 307.7 1196.89 307.1C1193.69 306.5 1190.82 305.467 1188.29 304C1187.22 303.333 1186.45 302.567 1185.99 301.7C1185.59 300.767 1185.42 299.867 1185.49 299C1185.62 298.067 1185.95 297.267 1186.49 296.6C1187.09 295.933 1187.82 295.5 1188.69 295.3C1189.62 295.1 1190.62 295.267 1191.69 295.8C1194.35 297.067 1196.85 297.967 1199.19 298.5C1201.52 298.967 1203.82 299.2 1206.09 299.2C1209.29 299.2 1211.65 298.667 1213.19 297.6C1214.79 296.467 1215.59 295 1215.59 293.2C1215.59 291.667 1215.05 290.5 1213.99 289.7C1212.99 288.833 1211.45 288.2 1209.39 287.8L1199.39 285.9C1195.25 285.1 1192.09 283.6 1189.89 281.4C1187.75 279.133 1186.69 276.233 1186.69 272.7C1186.69 269.5 1187.55 266.733 1189.29 264.4C1191.09 262.067 1193.55 260.267 1196.69 259C1199.82 257.733 1203.42 257.1 1207.49 257.1C1210.42 257.1 1213.15 257.433 1215.69 258.1C1218.29 258.7 1220.79 259.667 1223.19 261C1224.19 261.533 1224.85 262.233 1225.19 263.1C1225.59 263.967 1225.69 264.867 1225.49 265.8C1225.29 266.667 1224.89 267.467 1224.29 268.2C1223.69 268.867 1222.92 269.3 1221.99 269.5C1221.12 269.633 1220.12 269.433 1218.99 268.9C1216.92 267.833 1214.92 267.067 1212.99 266.6C1211.12 266.133 1209.32 265.9 1207.59 265.9C1204.32 265.9 1201.89 266.467 1200.29 267.6C1198.75 268.733 1197.99 270.233 1197.99 272.1C1197.99 273.5 1198.45 274.667 1199.39 275.6C1200.32 276.533 1201.75 277.167 1203.69 277.5L1213.69 279.4C1218.02 280.2 1221.29 281.667 1223.49 283.8C1225.75 285.933 1226.89 288.8 1226.89 292.4C1226.89 297.267 1224.99 301.1 1221.19 303.9C1217.39 306.633 1212.32 308 1205.99 308ZM183.177 443.8C181.507 443.8 180.047 443.367 178.777 442.5C177.577 441.633 176.577 440.3 175.777 438.5L159.877 401.6C159.277 400.133 159.047 398.767 159.177 397.5C159.377 396.233 159.977 395.233 160.977 394.5C162.047 393.7 163.477 393.3 165.277 393.3C166.807 393.3 168.047 393.667 168.977 394.4C169.907 395.067 170.747 396.367 171.477 398.3L184.977 432H181.977L195.877 398.2C196.607 396.333 197.447 395.067 198.377 394.4C199.377 393.667 200.707 393.3 202.377 393.3C203.847 393.3 205.007 393.7 205.877 394.5C206.747 395.233 207.277 396.233 207.477 397.5C207.677 398.7 207.447 400.033 206.777 401.5L190.577 438.5C189.847 440.3 188.847 441.633 187.577 442.5C186.377 443.367 184.907 443.8 183.177 443.8ZM239.237 444C233.697 444 228.937 442.967 224.937 440.9C220.937 438.833 217.837 435.9 215.637 432.1C213.497 428.3 212.437 423.8 212.437 418.6C212.437 413.533 213.467 409.1 215.537 405.3C217.667 401.5 220.567 398.533 224.237 396.4C227.967 394.2 232.197 393.1 236.937 393.1C240.397 393.1 243.497 393.667 246.237 394.8C249.037 395.933 251.397 397.567 253.337 399.7C255.337 401.833 256.837 404.433 257.837 407.5C258.897 410.5 259.437 413.9 259.437 417.7C259.437 418.9 258.997 419.833 258.137 420.5C257.337 421.1 256.167 421.4 254.637 421.4H222.537V414.2H250.637L249.037 415.7C249.037 412.633 248.567 410.067 247.637 408C246.767 405.933 245.467 404.367 243.737 403.3C242.067 402.167 239.967 401.6 237.437 401.6C234.637 401.6 232.237 402.267 230.237 403.6C228.297 404.867 226.797 406.7 225.737 409.1C224.737 411.433 224.237 414.233 224.237 417.5V418.2C224.237 423.667 225.497 427.767 228.037 430.5C230.637 433.167 234.437 434.5 239.437 434.5C241.167 434.5 243.097 434.3 245.237 433.9C247.437 433.433 249.497 432.667 251.437 431.6C252.837 430.8 254.067 430.467 255.137 430.6C256.197 430.667 257.037 431.033 257.637 431.7C258.297 432.367 258.697 433.2 258.837 434.2C258.967 435.133 258.767 436.1 258.237 437.1C257.767 438.1 256.937 438.967 255.737 439.7C253.397 441.167 250.697 442.267 247.637 443C244.637 443.667 241.837 444 239.237 444ZM275.737 443.8C273.667 443.8 272.067 443.267 270.937 442.2C269.867 441.067 269.337 439.467 269.337 437.4V399.6C269.337 397.533 269.867 395.967 270.937 394.9C271.997 393.833 273.497 393.3 275.437 393.3C277.367 393.3 278.867 393.833 279.937 394.9C280.997 395.967 281.537 397.533 281.537 399.6V405.9H280.537C281.467 401.9 283.297 398.867 286.037 396.8C288.767 394.733 292.397 393.5 296.937 393.1C298.337 392.967 299.437 393.333 300.237 394.2C301.097 395 301.597 396.267 301.737 398C301.867 399.667 301.467 401.033 300.537 402.1C299.667 403.1 298.337 403.7 296.537 403.9L294.337 404.1C290.267 404.5 287.197 405.767 285.137 407.9C283.067 409.967 282.037 412.9 282.037 416.7V437.4C282.037 439.467 281.497 441.067 280.437 442.2C279.367 443.267 277.797 443.8 275.737 443.8ZM323.917 461.8C322.457 461.8 321.257 461.4 320.317 460.6C319.387 459.867 318.817 458.867 318.617 457.6C318.487 456.333 318.717 455 319.317 453.6L326.117 438.5V443.7L307.917 401.6C307.317 400.133 307.117 398.767 307.317 397.5C307.517 396.233 308.117 395.233 309.117 394.5C310.187 393.7 311.617 393.3 313.417 393.3C314.957 393.3 316.187 393.667 317.117 394.4C318.057 395.067 318.887 396.367 319.617 398.3L333.117 432H330.117L343.917 398.2C344.657 396.333 345.517 395.067 346.517 394.4C347.517 393.667 348.857 393.3 350.517 393.3C351.987 393.3 353.157 393.7 354.017 394.5C354.887 395.233 355.417 396.233 355.617 397.5C355.817 398.7 355.587 400.033 354.917 401.5L330.617 457C329.757 458.867 328.817 460.133 327.817 460.8C326.817 461.467 325.517 461.8 323.917 461.8ZM397.507 443.7C395.507 443.7 393.977 443.1 392.907 441.9C391.837 440.7 391.307 439.033 391.307 436.9V400.2C391.307 398 391.837 396.333 392.907 395.2C393.977 394 395.507 393.4 397.507 393.4C399.507 393.4 401.037 394 402.107 395.2C403.237 396.333 403.807 398 403.807 400.2V436.9C403.807 439.033 403.277 440.7 402.207 441.9C401.137 443.1 399.577 443.7 397.507 443.7ZM397.507 384.1C395.177 384.1 393.337 383.533 392.007 382.4C390.737 381.2 390.107 379.567 390.107 377.5C390.107 375.367 390.737 373.733 392.007 372.6C393.337 371.467 395.177 370.9 397.507 370.9C399.907 370.9 401.737 371.467 403.007 372.6C404.277 373.733 404.907 375.367 404.907 377.5C404.907 379.567 404.277 381.2 403.007 382.4C401.737 383.533 399.907 384.1 397.507 384.1ZM422.997 443.8C420.997 443.8 419.457 443.267 418.397 442.2C417.327 441.067 416.797 439.467 416.797 437.4V399.6C416.797 397.533 417.327 395.967 418.397 394.9C419.457 393.833 420.957 393.3 422.897 393.3C424.827 393.3 426.327 393.833 427.397 394.9C428.457 395.967 428.997 397.533 428.997 399.6V406.4L427.897 403.9C429.357 400.367 431.627 397.7 434.697 395.9C437.827 394.033 441.357 393.1 445.297 393.1C449.227 393.1 452.457 393.833 454.997 395.3C457.527 396.767 459.427 399 460.697 402C461.957 404.933 462.597 408.667 462.597 413.2V437.4C462.597 439.467 462.057 441.067 460.997 442.2C459.927 443.267 458.397 443.8 456.397 443.8C454.397 443.8 452.827 443.267 451.697 442.2C450.627 441.067 450.097 439.467 450.097 437.4V413.8C450.097 410 449.357 407.233 447.897 405.5C446.497 403.767 444.297 402.9 441.297 402.9C437.627 402.9 434.697 404.067 432.497 406.4C430.357 408.667 429.297 411.7 429.297 415.5V437.4C429.297 441.667 427.197 443.8 422.997 443.8ZM484.887 443.8C482.887 443.8 481.327 443.267 480.187 442.2C479.127 441.067 478.587 439.467 478.587 437.4V403.5H473.987C472.387 403.5 471.157 403.1 470.287 402.3C469.427 401.433 468.987 400.267 468.987 398.8C468.987 397.267 469.427 396.1 470.287 395.3C471.157 394.5 472.387 394.1 473.987 394.1H482.187L478.587 397.4V394C478.587 387.133 480.327 382 483.787 378.6C487.257 375.133 492.257 373.1 498.787 372.5L502.187 372.2C503.527 372.067 504.587 372.3 505.387 372.9C506.187 373.433 506.727 374.167 506.987 375.1C507.257 375.967 507.287 376.867 507.087 377.8C506.887 378.733 506.457 379.567 505.787 380.3C505.187 380.967 504.387 381.333 503.387 381.4L501.987 381.5C498.187 381.767 495.427 382.733 493.687 384.4C491.957 386.067 491.087 388.6 491.087 392V395.7L489.487 394.1H499.587C501.187 394.1 502.427 394.5 503.287 395.3C504.157 396.1 504.587 397.267 504.587 398.8C504.587 400.267 504.157 401.433 503.287 402.3C502.427 403.1 501.187 403.5 499.587 403.5H491.087V437.4C491.087 441.667 489.027 443.8 484.887 443.8ZM532.747 444C527.677 444 523.277 442.967 519.547 440.9C515.817 438.833 512.917 435.9 510.847 432.1C508.777 428.233 507.747 423.7 507.747 418.5C507.747 414.567 508.317 411.067 509.447 408C510.647 404.867 512.347 402.2 514.547 400C516.747 397.733 519.377 396.033 522.447 394.9C525.517 393.7 528.947 393.1 532.747 393.1C537.817 393.1 542.217 394.133 545.947 396.2C549.677 398.267 552.577 401.2 554.647 405C556.717 408.8 557.747 413.3 557.747 418.5C557.747 422.433 557.147 425.967 555.947 429.1C554.817 432.233 553.147 434.933 550.947 437.2C548.747 439.4 546.117 441.1 543.047 442.3C539.977 443.433 536.547 444 532.747 444ZM532.747 434.5C535.217 434.5 537.377 433.9 539.247 432.7C541.117 431.5 542.547 429.733 543.547 427.4C544.617 425 545.147 422.033 545.147 418.5C545.147 413.167 544.017 409.2 541.747 406.6C539.477 403.933 536.477 402.6 532.747 402.6C530.277 402.6 528.117 403.2 526.247 404.4C524.377 405.533 522.917 407.3 521.847 409.7C520.847 412.033 520.347 414.967 520.347 418.5C520.347 423.767 521.477 427.767 523.747 430.5C526.017 433.167 529.017 434.5 532.747 434.5ZM574.467 443.8C572.397 443.8 570.797 443.267 569.667 442.2C568.597 441.067 568.067 439.467 568.067 437.4V399.6C568.067 397.533 568.597 395.967 569.667 394.9C570.727 393.833 572.227 393.3 574.167 393.3C576.097 393.3 577.597 393.833 578.667 394.9C579.727 395.967 580.267 397.533 580.267 399.6V405.9H579.267C580.197 401.9 582.027 398.867 584.767 396.8C587.497 394.733 591.127 393.5 595.667 393.1C597.067 392.967 598.167 393.333 598.967 394.2C599.827 395 600.327 396.267 600.467 398C600.597 399.667 600.197 401.033 599.267 402.1C598.397 403.1 597.067 403.7 595.267 403.9L593.067 404.1C588.997 404.5 585.927 405.767 583.867 407.9C581.797 409.967 580.767 412.9 580.767 416.7V437.4C580.767 439.467 580.227 441.067 579.167 442.2C578.097 443.267 576.527 443.8 574.467 443.8ZM613.627 443.8C611.627 443.8 610.087 443.267 609.027 442.2C607.957 441.067 607.427 439.467 607.427 437.4V399.6C607.427 397.533 607.957 395.967 609.027 394.9C610.087 393.833 611.587 393.3 613.527 393.3C615.457 393.3 616.957 393.833 618.027 394.9C619.087 395.967 619.627 397.533 619.627 399.6V406.9L618.527 403.9C619.857 400.567 621.927 397.933 624.727 396C627.527 394.067 630.857 393.1 634.727 393.1C638.657 393.1 641.887 394.033 644.427 395.9C646.957 397.767 648.727 400.633 649.727 404.5H648.327C649.657 400.967 651.857 398.2 654.927 396.2C657.987 394.133 661.527 393.1 665.527 393.1C669.257 393.1 672.327 393.833 674.727 395.3C677.187 396.767 679.027 399 680.227 402C681.427 404.933 682.027 408.667 682.027 413.2V437.4C682.027 439.467 681.457 441.067 680.327 442.2C679.257 443.267 677.727 443.8 675.727 443.8C673.727 443.8 672.187 443.267 671.127 442.2C670.057 441.067 669.527 439.467 669.527 437.4V413.7C669.527 409.967 668.887 407.233 667.627 405.5C666.427 403.767 664.357 402.9 661.427 402.9C658.157 402.9 655.587 404.067 653.727 406.4C651.857 408.667 650.927 411.833 650.927 415.9V437.4C650.927 439.467 650.387 441.067 649.327 442.2C648.257 443.267 646.727 443.8 644.727 443.8C642.727 443.8 641.157 443.267 640.027 442.2C638.957 441.067 638.427 439.467 638.427 437.4V413.7C638.427 409.967 637.787 407.233 636.527 405.5C635.327 403.767 633.287 402.9 630.427 402.9C627.157 402.9 624.587 404.067 622.727 406.4C620.857 408.667 619.927 411.833 619.927 415.9V437.4C619.927 441.667 617.827 443.8 613.627 443.8ZM711.017 444C707.487 444 704.317 443.333 701.517 442C698.787 440.6 696.617 438.733 695.017 436.4C693.487 434.067 692.717 431.433 692.717 428.5C692.717 424.9 693.657 422.067 695.517 420C697.387 417.867 700.417 416.333 704.617 415.4C708.817 414.467 714.457 414 721.517 414H726.517V421.2H721.617C717.487 421.2 714.187 421.4 711.717 421.8C709.257 422.2 707.487 422.9 706.417 423.9C705.417 424.833 704.917 426.167 704.917 427.9C704.917 430.1 705.687 431.9 707.217 433.3C708.757 434.7 710.887 435.4 713.617 435.4C715.817 435.4 717.757 434.9 719.417 433.9C721.157 432.833 722.517 431.4 723.517 429.6C724.517 427.8 725.017 425.733 725.017 423.4V411.9C725.017 408.567 724.287 406.167 722.817 404.7C721.357 403.233 718.887 402.5 715.417 402.5C713.487 402.5 711.387 402.733 709.117 403.2C706.917 403.667 704.587 404.467 702.117 405.6C700.857 406.2 699.717 406.367 698.717 406.1C697.787 405.833 697.057 405.3 696.517 404.5C695.987 403.633 695.717 402.7 695.717 401.7C695.717 400.7 695.987 399.733 696.517 398.8C697.057 397.8 697.957 397.067 699.217 396.6C702.287 395.333 705.217 394.433 708.017 393.9C710.887 393.367 713.487 393.1 715.817 393.1C720.617 393.1 724.557 393.833 727.617 395.3C730.757 396.767 733.087 399 734.617 402C736.157 404.933 736.917 408.733 736.917 413.4V437.4C736.917 439.467 736.417 441.067 735.417 442.2C734.417 443.267 732.987 443.8 731.117 443.8C729.257 443.8 727.787 443.267 726.717 442.2C725.717 441.067 725.217 439.467 725.217 437.4V432.6H726.017C725.557 434.933 724.617 436.967 723.217 438.7C721.887 440.367 720.187 441.667 718.117 442.6C716.057 443.533 713.687 444 711.017 444ZM772.007 444C767.677 444 764.037 443.267 761.107 441.8C758.237 440.333 756.107 438.2 754.707 435.4C753.307 432.533 752.607 429 752.607 424.8V403.5H747.407C745.807 403.5 744.577 403.1 743.707 402.3C742.837 401.433 742.407 400.267 742.407 398.8C742.407 397.267 742.837 396.1 743.707 395.3C744.577 394.5 745.807 394.1 747.407 394.1H752.607V385C752.607 382.933 753.137 381.367 754.207 380.3C755.337 379.233 756.907 378.7 758.907 378.7C760.907 378.7 762.437 379.233 763.507 380.3C764.577 381.367 765.107 382.933 765.107 385V394.1H775.707C777.307 394.1 778.537 394.5 779.407 395.3C780.277 396.1 780.707 397.267 780.707 398.8C780.707 400.267 780.277 401.433 779.407 402.3C778.537 403.1 777.307 403.5 775.707 403.5H765.107V424.1C765.107 427.3 765.807 429.7 767.207 431.3C768.607 432.9 770.877 433.7 774.007 433.7C775.137 433.7 776.137 433.6 777.007 433.4C777.877 433.2 778.637 433.067 779.307 433C780.107 432.933 780.777 433.2 781.307 433.8C781.837 434.333 782.107 435.467 782.107 437.2C782.107 438.533 781.877 439.733 781.407 440.8C781.007 441.8 780.237 442.5 779.107 442.9C778.237 443.167 777.107 443.4 775.707 443.6C774.307 443.867 773.077 444 772.007 444ZM795.457 443.7C793.457 443.7 791.927 443.1 790.857 441.9C789.787 440.7 789.257 439.033 789.257 436.9V400.2C789.257 398 789.787 396.333 790.857 395.2C791.927 394 793.457 393.4 795.457 393.4C797.457 393.4 798.987 394 800.057 395.2C801.187 396.333 801.757 398 801.757 400.2V436.9C801.757 439.033 801.227 440.7 800.157 441.9C799.087 443.1 797.527 443.7 795.457 443.7ZM795.457 384.1C793.127 384.1 791.287 383.533 789.957 382.4C788.687 381.2 788.057 379.567 788.057 377.5C788.057 375.367 788.687 373.733 789.957 372.6C791.287 371.467 793.127 370.9 795.457 370.9C797.857 370.9 799.687 371.467 800.957 372.6C802.227 373.733 802.857 375.367 802.857 377.5C802.857 379.567 802.227 381.2 800.957 382.4C799.687 383.533 797.857 384.1 795.457 384.1ZM834.547 443.8C832.877 443.8 831.407 443.367 830.147 442.5C828.947 441.633 827.947 440.3 827.147 438.5L811.247 401.6C810.647 400.133 810.407 398.767 810.547 397.5C810.747 396.233 811.347 395.233 812.347 394.5C813.407 393.7 814.847 393.3 816.647 393.3C818.177 393.3 819.407 393.667 820.347 394.4C821.277 395.067 822.107 396.367 822.847 398.3L836.347 432H833.347L847.247 398.2C847.977 396.333 848.807 395.067 849.747 394.4C850.747 393.667 852.077 393.3 853.747 393.3C855.207 393.3 856.377 393.7 857.247 394.5C858.107 395.233 858.647 396.233 858.847 397.5C859.047 398.7 858.807 400.033 858.147 401.5L841.947 438.5C841.207 440.3 840.207 441.633 838.947 442.5C837.747 443.367 836.277 443.8 834.547 443.8ZM890.607 444C885.067 444 880.307 442.967 876.307 440.9C872.307 438.833 869.207 435.9 867.007 432.1C864.867 428.3 863.807 423.8 863.807 418.6C863.807 413.533 864.837 409.1 866.907 405.3C869.037 401.5 871.937 398.533 875.607 396.4C879.337 394.2 883.567 393.1 888.307 393.1C891.767 393.1 894.867 393.667 897.607 394.8C900.407 395.933 902.767 397.567 904.707 399.7C906.707 401.833 908.207 404.433 909.207 407.5C910.267 410.5 910.807 413.9 910.807 417.7C910.807 418.9 910.367 419.833 909.507 420.5C908.707 421.1 907.537 421.4 906.007 421.4H873.907V414.2H902.007L900.407 415.7C900.407 412.633 899.937 410.067 899.007 408C898.137 405.933 896.837 404.367 895.107 403.3C893.437 402.167 891.337 401.6 888.807 401.6C886.007 401.6 883.607 402.267 881.607 403.6C879.667 404.867 878.167 406.7 877.107 409.1C876.107 411.433 875.607 414.233 875.607 417.5V418.2C875.607 423.667 876.867 427.767 879.407 430.5C882.007 433.167 885.807 434.5 890.807 434.5C892.537 434.5 894.467 434.3 896.607 433.9C898.807 433.433 900.867 432.667 902.807 431.6C904.207 430.8 905.437 430.467 906.507 430.6C907.567 430.667 908.407 431.033 909.007 431.7C909.667 432.367 910.067 433.2 910.207 434.2C910.337 435.133 910.137 436.1 909.607 437.1C909.137 438.1 908.307 438.967 907.107 439.7C904.767 441.167 902.067 442.267 899.007 443C896.007 443.667 893.207 444 890.607 444ZM926.697 422.7C925.437 422.7 924.437 422.3 923.697 421.5C923.037 420.7 922.637 419.567 922.497 418.1L919.497 379.9C919.297 377.433 919.837 375.467 921.097 374C922.367 372.467 924.237 371.7 926.697 371.7C929.097 371.7 930.897 372.467 932.097 374C933.367 375.467 933.897 377.433 933.697 379.9L930.697 418.1C930.637 419.567 930.237 420.7 929.497 421.5C928.837 422.3 927.897 422.7 926.697 422.7ZM926.697 443.5C924.437 443.5 922.597 442.8 921.197 441.4C919.867 440 919.197 438.2 919.197 436C919.197 433.867 919.867 432.133 921.197 430.8C922.597 429.4 924.437 428.7 926.697 428.7C929.037 428.7 930.837 429.4 932.097 430.8C933.437 432.133 934.097 433.867 934.097 436C934.097 438.2 933.437 440 932.097 441.4C930.837 442.8 929.037 443.5 926.697 443.5Z" fill="black"/>
</g>
<defs>
<filter id="filter0_d_1283_984" x="0.924805" y="0" width="1382.96" height="928.211" filterUnits="userSpaceOnUse" color-interpolation-filters="sRGB">
<feFlood flood-opacity="0" result="BackgroundImageFix"/>
<feColorMatrix in="SourceAlpha" type="matrix" values="0 0 0 0 0 0 0 0 0 0 0 0 0 0 0 0 0 0 127 0" result="hardAlpha"/>
<feOffset dy="4"/>
<feGaussianBlur stdDeviation="2"/>
<feComposite in2="hardAlpha" operator="out"/>
<feColorMatrix type="matrix" values="0 0 0 0 0 0 0 0 0 0 0 0 0 0 0 0 0 0 0.25 0"/>
<feBlend mode="normal" in2="BackgroundImageFix" result="effect1_dropShadow_1283_984"/>
<feBlend mode="normal" in="SourceGraphic" in2="effect1_dropShadow_1283_984" result="shape"/>
</filter>
</defs>
</svg>
